<?xml version="1.0" encoding="UTF-8" standalone="no"?>
<!-- Created with Inkscape (http://www.inkscape.org/) -->

<svg
   xmlns:dc="http://purl.org/dc/elements/1.1/"
   xmlns:cc="http://creativecommons.org/ns#"
   xmlns:rdf="http://www.w3.org/1999/02/22-rdf-syntax-ns#"
   xmlns:svg="http://www.w3.org/2000/svg"
   xmlns="http://www.w3.org/2000/svg"
   xmlns:sodipodi="http://sodipodi.sourceforge.net/DTD/sodipodi-0.dtd"
   xmlns:inkscape="http://www.inkscape.org/namespaces/inkscape"
   width="10cm"
   height="10cm"
   viewBox="0 0 377.95277 377.95278"
   version="1.1"
   id="svg8"
   inkscape:version="0.92.3 (2405546, 2018-03-11)"
   sodipodi:docname="mesh2d_1.svg">
  <defs
     id="defs2">
    <marker
       inkscape:isstock="true"
       style="overflow:visible"
       id="marker5236"
       refX="0"
       refY="0"
       orient="auto"
       inkscape:stockid="DotM">
      <path
         transform="matrix(0.4,0,0,0.4,2.96,0.4)"
         style="fill:#000000;fill-opacity:1;fill-rule:evenodd;stroke:#000000;stroke-width:1.00000003pt;stroke-opacity:1"
         d="m -2.5,-1 c 0,2.76 -2.24,5 -5,5 -2.76,0 -5,-2.24 -5,-5 0,-2.76 2.24,-5 5,-5 2.76,0 5,2.24 5,5 z"
         id="path5234"
         inkscape:connector-curvature="0" />
    </marker>
    <marker
       inkscape:stockid="DotM"
       orient="auto"
       refY="0"
       refX="0"
       id="marker5146"
       style="overflow:visible"
       inkscape:isstock="true"
       inkscape:collect="always">
      <path
         id="path5144"
         d="m -2.5,-1 c 0,2.76 -2.24,5 -5,5 -2.76,0 -5,-2.24 -5,-5 0,-2.76 2.24,-5 5,-5 2.76,0 5,2.24 5,5 z"
         style="fill:#000000;fill-opacity:1;fill-rule:evenodd;stroke:#000000;stroke-width:1.00000003pt;stroke-opacity:1"
         transform="matrix(0.4,0,0,0.4,2.96,0.4)"
         inkscape:connector-curvature="0" />
    </marker>
    <marker
       inkscape:stockid="DotM"
       orient="auto"
       refY="0"
       refX="0"
       id="marker5088"
       style="overflow:visible"
       inkscape:isstock="true">
      <path
         id="path5086"
         d="m -2.5,-1 c 0,2.76 -2.24,5 -5,5 -2.76,0 -5,-2.24 -5,-5 0,-2.76 2.24,-5 5,-5 2.76,0 5,2.24 5,5 z"
         style="fill:#000000;fill-opacity:1;fill-rule:evenodd;stroke:#000000;stroke-width:1.00000003pt;stroke-opacity:1"
         transform="matrix(0.4,0,0,0.4,2.96,0.4)"
         inkscape:connector-curvature="0" />
    </marker>
    <marker
       inkscape:stockid="DotM"
       orient="auto"
       refY="0"
       refX="0"
       id="marker5036"
       style="overflow:visible"
       inkscape:isstock="true">
      <path
         id="path5034"
         d="m -2.5,-1 c 0,2.76 -2.24,5 -5,5 -2.76,0 -5,-2.24 -5,-5 0,-2.76 2.24,-5 5,-5 2.76,0 5,2.24 5,5 z"
         style="fill:#000000;fill-opacity:1;fill-rule:evenodd;stroke:#000000;stroke-width:1.00000003pt;stroke-opacity:1"
         transform="matrix(0.4,0,0,0.4,2.96,0.4)"
         inkscape:connector-curvature="0" />
    </marker>
    <marker
       inkscape:stockid="DotM"
       orient="auto"
       refY="0"
       refX="0"
       id="marker4924"
       style="overflow:visible"
       inkscape:isstock="true">
      <path
         id="path4922"
         d="m -2.5,-1 c 0,2.76 -2.24,5 -5,5 -2.76,0 -5,-2.24 -5,-5 0,-2.76 2.24,-5 5,-5 2.76,0 5,2.24 5,5 z"
         style="fill:none;fill-opacity:1;fill-rule:evenodd;stroke:#000000;stroke-width:1.00000003pt;stroke-opacity:1"
         transform="matrix(0.4,0,0,0.4,2.96,0.4)"
         inkscape:connector-curvature="0" />
    </marker>
    <marker
       inkscape:isstock="true"
       style="overflow:visible"
       id="marker4852"
       refX="0"
       refY="0"
       orient="auto"
       inkscape:stockid="DotM"
       inkscape:collect="always">
      <path
         transform="matrix(0.4,0,0,0.4,2.96,0.4)"
         style="fill:#000000;fill-opacity:1;fill-rule:evenodd;stroke:#000000;stroke-width:1.00000003pt;stroke-opacity:1"
         d="m -2.5,-1 c 0,2.76 -2.24,5 -5,5 -2.76,0 -5,-2.24 -5,-5 0,-2.76 2.24,-5 5,-5 2.76,0 5,2.24 5,5 z"
         id="path4850"
         inkscape:connector-curvature="0" />
    </marker>
    <marker
       inkscape:stockid="DotM"
       orient="auto"
       refY="0"
       refX="0"
       id="DotM"
       style="overflow:visible"
       inkscape:isstock="true"
       inkscape:collect="always">
      <path
         id="path4588"
         d="m -2.5,-1 c 0,2.76 -2.24,5 -5,5 -2.76,0 -5,-2.24 -5,-5 0,-2.76 2.24,-5 5,-5 2.76,0 5,2.24 5,5 z"
         style="fill:#000000;fill-opacity:1;fill-rule:evenodd;stroke:#000000;stroke-width:1.00000003pt;stroke-opacity:1"
         transform="matrix(0.4,0,0,0.4,2.96,0.4)"
         inkscape:connector-curvature="0" />
    </marker>
  </defs>
  <sodipodi:namedview
     id="base"
     pagecolor="#ffffff"
     bordercolor="#666666"
     borderopacity="1.0"
     inkscape:pageopacity="0.0"
     inkscape:pageshadow="2"
     inkscape:zoom="22.627417"
     inkscape:cx="31.43721"
     inkscape:cy="-13.507719"
     inkscape:document-units="cm"
     inkscape:current-layer="layer1"
     showgrid="true"
     inkscape:snap-intersection-paths="false"
     inkscape:window-width="1920"
     inkscape:window-height="1013"
     inkscape:window-x="-9"
     inkscape:window-y="-9"
     inkscape:window-maximized="1"
     units="cm"
     inkscape:snap-bbox="false"
     inkscape:snap-nodes="true"
     inkscape:object-nodes="true"
     inkscape:snap-others="false"
     inkscape:snap-to-guides="false"
     inkscape:snap-grids="false"
     inkscape:bbox-nodes="true"
     inkscape:object-paths="false"
     inkscape:snap-smooth-nodes="true">
    <inkscape:grid
       type="xygrid"
       id="grid10"
       spacingx="1.8897639"
       spacingy="1.8897639"
       originy="188.97639"
       empspacing="2"
       originx="188.97639"
       color="#9595ff"
       opacity="0.1254902"
       dotted="true"
       units="cm" />
  </sodipodi:namedview>
  <metadata
     id="metadata5">
    <rdf:RDF>
      <cc:Work
         rdf:about="">
        <dc:format>image/svg+xml</dc:format>
        <dc:type
           rdf:resource="http://purl.org/dc/dcmitype/StillImage" />
        <dc:title></dc:title>
        <cc:license
           rdf:resource="" />
      </cc:Work>
    </rdf:RDF>
  </metadata>
  <g
     inkscape:label="Ebene 1"
     inkscape:groupmode="layer"
     id="layer1"
     transform="translate(0,53.157481)">
    <path
       style="fill:none;stroke:#000000;stroke-width:0.65143573;stroke-linecap:butt;stroke-linejoin:miter;stroke-miterlimit:4;stroke-dasharray:none;stroke-opacity:1;marker-start:url(#DotM);marker-mid:url(#DotM);marker-end:url(#DotM)"
       d="m 52.913389,324.79529 h -7.559055 -7.559056 l -11.338583,3.77953 -9.44882,1.88977 L 7.5590556,328.57482 0,324.79529 l 7.5590556,-3.77952 9.4488194,-1.88977 9.44882,1.88977 11.338583,3.77952"
       id="path3717"
       inkscape:connector-curvature="0"
       sodipodi:nodetypes="ccccccccccc" />
    <path
       style="fill:none;stroke:#000000;stroke-width:0.65143573;stroke-linecap:butt;stroke-linejoin:miter;stroke-miterlimit:4;stroke-dasharray:none;stroke-opacity:1;marker-start:url(#marker4852);marker-mid:url(#marker4852);marker-end:url(#marker4852)"
       d="m 52.913389,332.35435 h -7.559055 -7.559056 l -9.44882,1.88976 -11.338583,1.88977 -13.2283472,-1.88977 -11.3385834,-9.44882 11.3385834,-9.44882 13.2283472,-1.88976 11.338584,1.88976 9.448819,1.88977 h 7.559056 7.559055"
       id="path4848"
       inkscape:connector-curvature="0"
       sodipodi:nodetypes="ccccccccccccc" />
    <path
       style="fill:none;fill-opacity:1;stroke:#000000;stroke-width:0.65143573;stroke-linecap:butt;stroke-miterlimit:4;stroke-dasharray:0, 7.16579308;stroke-dashoffset:0;stroke-opacity:1;marker-start:url(#marker5036);marker-mid:url(#marker5088);marker-end:url(#marker5146)"
       d="m 49.133861,339.91341 h -7.559055 l -7.559056,0 -9.448819,1.88976 H 9.4488195 l -17.0078751,-7.55906 -5.6692914,-9.44882 5.6692914,-9.44882 17.0078751,-7.55905 H 24.566931 l 9.448819,1.88976 h 7.559056 7.559055"
       id="path4920"
       inkscape:connector-curvature="0"
       sodipodi:nodetypes="ccccccccccccc" />
    <path
       style="fill:none;fill-opacity:1;stroke:#000000;stroke-width:0.65143573;stroke-linecap:butt;stroke-miterlimit:4;stroke-dasharray:none;stroke-dashoffset:0;stroke-opacity:1;marker-start:url(#marker5236);marker-mid:url(#marker5236);marker-end:url(#marker5236)"
       d="m 52.913389,347.47246 h -7.559055 -7.559056 -7.559056 l -13.228347,1.88976 -20.7874028,-3.77952 -17.0078752,-20.78741 17.0078752,-20.7874 20.7874028,-3.77953 13.228347,1.88977 h 7.559056 7.559056 7.559055"
       id="path5226"
       inkscape:connector-curvature="0"
       sodipodi:nodetypes="ccccccccccccc" />
    <path
       style="fill:#0000ff;fill-opacity:0.4609375;stroke:#0000ff;stroke-width:0.21000001;stroke-linecap:butt;stroke-miterlimit:4;stroke-dasharray:none;stroke-dashoffset:0;stroke-opacity:1"
       d="m 52.913387,324.79528 v 7.55905 h -7.559055 v -7.55906 z"
       id="path18348"
       inkscape:connector-curvature="0" />
    <path
       inkscape:connector-curvature="0"
       id="path18350"
       d="m 45.354332,324.79527 2e-6,7.55908 h -7.559056 l 0,-7.55906 z"
       style="fill:#0000ff;fill-opacity:0.4609375;stroke:#0000ff;stroke-width:0.21000001;stroke-linecap:butt;stroke-miterlimit:4;stroke-dasharray:none;stroke-dashoffset:0;stroke-opacity:1"
       sodipodi:nodetypes="ccccc" />
    <path
       sodipodi:nodetypes="ccccc"
       style="fill:#0000ff;fill-opacity:0.4609375;stroke:#0000ff;stroke-width:0.21000001;stroke-linecap:butt;stroke-miterlimit:4;stroke-dasharray:none;stroke-dashoffset:0;stroke-opacity:1"
       d="m 37.795278,324.79529 0,7.55906 -9.44882,1.88976 -1.889763,-5.66929 z"
       id="path18352"
       inkscape:connector-curvature="0" />
    <path
       inkscape:connector-curvature="0"
       id="path18354"
       d="m 26.456695,328.57482 1.889763,5.66929 -11.338583,1.88977 v -5.66929 z"
       style="fill:#0000ff;fill-opacity:0.4609375;stroke:#0000ff;stroke-width:0.21000001;stroke-linecap:butt;stroke-miterlimit:4;stroke-dasharray:none;stroke-dashoffset:0;stroke-opacity:1"
       sodipodi:nodetypes="ccccc" />
    <path
       sodipodi:nodetypes="ccccc"
       style="fill:#0000ff;fill-opacity:0.4609375;stroke:#0000ff;stroke-width:0.21000001;stroke-linecap:butt;stroke-miterlimit:4;stroke-dasharray:none;stroke-dashoffset:0;stroke-opacity:1"
       d="m 17.007875,330.46459 0,5.66929 -13.2283472,-1.88977 3.7795278,-5.66929 z"
       id="path18356"
       inkscape:connector-curvature="0" />
    <path
       inkscape:connector-curvature="0"
       id="path18358"
       d="m 7.5590556,328.57482 -3.7795278,5.66929 -11.3385834,-9.44882 H 0 Z"
       style="fill:#0000ff;fill-opacity:0.4609375;stroke:#0000ff;stroke-width:0.21000001;stroke-linecap:butt;stroke-miterlimit:4;stroke-dasharray:none;stroke-dashoffset:0;stroke-opacity:1"
       sodipodi:nodetypes="ccccc" />
    <path
       style="fill:#0000ff;fill-opacity:0.4609375;stroke:#0000ff;stroke-width:0.20999999;stroke-linecap:butt;stroke-miterlimit:4;stroke-dasharray:none;stroke-dashoffset:0;stroke-opacity:1"
       d="m 52.913385,332.35431 2e-6,15.11813 -3.779528,-7.55905 z"
       id="path18360"
       inkscape:connector-curvature="0" />
    <path
       style="fill:#0000ff;fill-opacity:0.4609375;stroke:#0000ff;stroke-width:0.20999999;stroke-linecap:butt;stroke-miterlimit:4;stroke-dasharray:none;stroke-dashoffset:0;stroke-opacity:1"
       d="m 45.35433,332.35431 7.559053,-2e-5 -3.779526,7.55908 -3.779527,-7.55906"
       id="path18362"
       inkscape:connector-curvature="0" />
    <path
       style="fill:#0000ff;fill-opacity:0.4609375;stroke:#0000ff;stroke-width:0.20999999;stroke-linecap:butt;stroke-miterlimit:4;stroke-dasharray:none;stroke-dashoffset:0;stroke-opacity:1"
       d="m 45.354332,347.47244 7.559053,-2e-5 -3.779526,-7.55903 z"
       id="path18364"
       inkscape:connector-curvature="0" />
    <path
       style="fill:#0000ff;fill-opacity:0.4609375;stroke:#0000ff;stroke-width:0.20999999;stroke-linecap:butt;stroke-miterlimit:4;stroke-dasharray:none;stroke-dashoffset:0;stroke-opacity:1"
       d="m 45.354332,332.35433 -2e-6,15.11809 3.779525,-7.55907 z"
       id="path18366"
       inkscape:connector-curvature="0" />
    <path
       style="fill:#0000ff;fill-opacity:0.4609375;stroke:#0000ff;stroke-width:0.20999999;stroke-linecap:butt;stroke-miterlimit:4;stroke-dasharray:none;stroke-dashoffset:0;stroke-opacity:1"
       d="m 45.354328,332.35429 -3.779524,7.5591 3.779524,7.55901 z"
       id="path18368"
       inkscape:connector-curvature="0" />
    <path
       style="fill:#0000ff;fill-opacity:0.4609375;stroke:#0000ff;stroke-width:0.20999999;stroke-linecap:butt;stroke-miterlimit:4;stroke-dasharray:none;stroke-dashoffset:0;stroke-opacity:1"
       d="m 37.795276,332.35433 3.779526,7.55904 3.77953,-7.55904 h -7.559056"
       id="path18370"
       inkscape:connector-curvature="0" />
    <path
       style="fill:#0000ff;fill-opacity:0.4609375;stroke:#0000ff;stroke-width:0.20999999;stroke-linecap:butt;stroke-miterlimit:4;stroke-dasharray:none;stroke-dashoffset:0;stroke-opacity:1"
       d="m 37.795276,347.47244 h 7.559056 l -3.779532,-7.55909 -3.779524,7.55909"
       id="path18372"
       inkscape:connector-curvature="0" />
    <path
       style="fill:#0000ff;fill-opacity:0.4609375;stroke:#0000ff;stroke-width:0.20999999;stroke-linecap:butt;stroke-miterlimit:4;stroke-dasharray:none;stroke-dashoffset:0;stroke-opacity:1"
       d="m 37.795276,332.35433 -2e-6,15.11809 3.779524,-7.55909 z"
       id="path18374"
       inkscape:connector-curvature="0" />
  </g>
</svg>
